<?xml version="1.0" standalone="no"?>
<!DOCTYPE svg PUBLIC "-//W3C//DTD SVG 20010904//EN"
 "http://www.w3.org/TR/2001/REC-SVG-20010904/DTD/svg10.dtd">
<svg version="1.0" xmlns="http://www.w3.org/2000/svg"
 width="1113.000000pt" height="1280.000000pt" viewBox="0 0 1113.000000 1280.000000"
 preserveAspectRatio="xMidYMid meet">
<g transform="translate(0.000000,1280.000000) scale(0.100000,-0.100000)"
fill="#000000" stroke="none">
<path d="M10820 12599 c-2129 -1224 -3620 -2406 -5276 -4179 -538 -576 -1143
-1269 -1469 -1680 -108 -138 -113 -142 -135 -134 -71 27 -260 65 -364 74 -609
52 -1284 -270 -1970 -940 -301 -294 -565 -608 -833 -990 -152 -216 -441 -692
-424 -698 5 -1 80 27 167 64 436 182 671 244 925 244 201 0 388 -44 576 -136
95 -47 268 -158 337 -217 l38 -33 -35 -114 c-49 -157 -74 -258 -97 -395 -31
-179 -38 -159 100 -280 66 -58 122 -105 124 -105 3 0 82 98 177 217 582 732
1514 1819 1820 2120 221 219 338 278 408 209 22 -23 26 -35 26 -84 -2 -137
-136 -330 -587 -840 -96 -108 -255 -291 -353 -407 -322 -379 -707 -805 -1103
-1219 -166 -174 -171 -180 -154 -199 9 -11 61 -57 114 -104 l98 -85 52 12
c124 30 381 126 520 196 37 19 74 34 82 34 16 0 182 -171 243 -250 168 -221
260 -449 284 -708 21 -225 -10 -448 -121 -866 -28 -104 -48 -191 -46 -193 6
-6 210 153 376 293 201 169 429 383 597 560 845 891 1273 1756 1222 2473 -14
201 -53 358 -134 535 l-35 77 128 137 c288 306 466 506 773 862 1461 1699
2373 3015 3191 4610 328 640 645 1348 1015 2268 3 6 1 12 -3 12 -5 0 -119 -63
-254 -141z m-2358 -2562 c373 -135 481 -604 203 -882 -103 -103 -233 -157
-380 -157 -282 0 -513 215 -532 494 -19 271 163 510 432 568 69 15 203 4 277
-23z"/>
<path d="M8635 9431 c-34 -34 -134 -89 -204 -113 -53 -18 -88 -23 -176 -23
-125 0 -200 20 -300 81 -32 19 -60 32 -62 30 -3 -2 5 -23 17 -46 33 -65 112
-137 188 -173 62 -30 75 -32 172 -32 88 0 113 4 155 23 107 49 186 129 230
235 17 41 10 47 -20 18z"/>
<path d="M4680 5473 c-78 -29 -270 -217 -571 -558 -754 -855 -1485 -1757
-1974 -2435 l-40 -55 33 24 c54 38 820 806 1043 1046 359 386 550 600 881 985
96 113 233 270 303 350 295 335 405 494 405 584 0 59 -27 79 -80 59z"/>
<path d="M1800 2723 c-232 -181 -696 -630 -918 -886 -433 -500 -737 -1047
-833 -1502 -22 -106 -44 -303 -35 -312 12 -12 149 17 275 59 407 136 903 488
1308 930 262 287 579 702 790 1038 69 110 137 230 130 230 -3 0 -93 -105 -200
-232 -233 -279 -366 -421 -550 -584 -350 -311 -663 -506 -873 -543 -91 -17
-94 -14 -94 83 0 149 42 288 156 525 153 316 283 506 619 907 55 65 133 155
175 199 41 44 90 97 109 118 19 20 33 37 30 37 -2 0 -43 -30 -89 -67z"/>
<path d="M1910 2576 c-118 -103 -332 -323 -427 -436 -242 -291 -399 -615 -427
-877 -5 -51 -4 -53 19 -53 45 0 190 52 285 102 326 172 628 473 937 933 63 94
87 135 79 135 -2 0 -45 -48 -94 -107 -246 -296 -589 -561 -750 -580 -49 -5
-51 -5 -58 21 -9 38 12 136 50 232 68 172 186 356 358 557 99 116 132 157 126
157 -1 0 -46 -38 -98 -84z"/>
</g>
</svg>
