<?xml version="1.0" standalone="no"?>
<!DOCTYPE svg PUBLIC "-//W3C//DTD SVG 20010904//EN"
 "http://www.w3.org/TR/2001/REC-SVG-20010904/DTD/svg10.dtd">
<svg version="1.0" xmlns="http://www.w3.org/2000/svg"
 width="1278.000000pt" height="1280.000000pt" viewBox="0 0 1278.000000 1280.000000"
 preserveAspectRatio="xMidYMid meet">
<g transform="translate(0.000000,1280.000000) scale(0.100000,-0.100000)"
fill="#000000" stroke="none">
<path d="M11150 12796 c-3 -3 -57 -10 -120 -16 -476 -44 -998 -181 -1580 -415
-1315 -528 -2859 -1530 -4168 -2705 -248 -223 -279 -247 -340 -270 -99 -37
-148 -31 -635 87 l-442 107 -130 -1 c-152 0 -251 -24 -395 -95 l-85 -41 -1598
-1596 c-1363 -1362 -1602 -1605 -1627 -1654 -17 -32 -30 -67 -30 -76 0 -53 68
-127 141 -155 24 -9 215 -43 424 -76 209 -33 711 -112 1115 -175 404 -64 772
-119 816 -122 212 -15 463 69 638 211 73 59 138 91 170 81 6 -2 25 -6 41 -10
23 -5 326 -302 1254 -1228 673 -672 1236 -1242 1252 -1266 52 -80 38 -146 -53
-253 -87 -102 -156 -254 -189 -413 -34 -164 -38 -132 151 -1325 16 -102 65
-415 109 -695 45 -281 86 -526 92 -545 22 -64 58 -106 118 -137 33 -18 50 -16
112 13 46 22 284 255 1633 1602 1153 1152 1590 1595 1622 1644 91 138 137 294
138 468 0 112 -3 125 -107 560 -59 245 -107 463 -107 485 1 68 32 116 191 291
950 1045 1750 2182 2340 3329 475 924 777 1811 848 2495 5 52 15 145 22 205
17 157 3 362 -42 599 -52 279 -160 503 -329 680 -215 226 -493 351 -885 397
-115 13 -357 23 -365 15z m-1255 -1881 c486 -100 865 -433 1020 -897 45 -135
65 -264 65 -418 0 -372 -143 -707 -410 -963 -193 -186 -406 -296 -680 -354
-115 -24 -371 -24 -490 0 -264 53 -490 170 -678 351 -195 189 -313 392 -380
653 -25 100 -27 123 -27 313 0 182 3 216 24 300 61 245 173 449 340 623 219
227 485 362 802 407 91 13 320 5 414 -15z"/>
<path d="M3065 4772 c-60 -37 -288 -296 -448 -508 -451 -600 -949 -1565 -1195
-2314 -105 -318 -144 -491 -146 -647 0 -79 2 -96 20 -120 37 -49 57 -44 313
81 453 220 808 370 1481 626 550 210 794 335 1095 560 172 129 328 264 502
435 143 139 143 140 143 185 0 31 -9 60 -29 95 -20 33 -287 307 -798 817 -786
785 -810 807 -883 808 -14 0 -38 -8 -55 -18z"/>
</g>
</svg>
